<?xml version="1.0" encoding="utf-8"?>
<!-- Generator: Adobe Illustrator 24.1.2, SVG Export Plug-In . SVG Version: 6.00 Build 0)  -->
<svg version="1.1" id="Layer_1" xmlns="http://www.w3.org/2000/svg" xmlns:xlink="http://www.w3.org/1999/xlink" x="0px" y="0px"
	 width="220px" height="297.3px" viewBox="0 0 220 297.3" enable-background="new 0 0 220 297.3" xml:space="preserve">
<g>
	<g>
		<polygon fill="#25332F" points="205.4,4.1 205.4,218.7 195.8,218.7 195.8,66.3 185.2,66.3 185.2,229.3 193.7,229.3 195.8,229.3 
			205.4,229.3 213.3,229.3 216,229.3 216,4.1 		"/>
		<rect x="165.1" y="113.9" fill="#25332F" width="10.6" height="115.4"/>
		<polygon fill="#25332F" points="144.9,218.7 135.3,218.7 135.3,192.3 124.7,192.3 94.9,192.3 84.3,192.3 84.3,218.7 74.7,218.7 
			74.7,163.7 64.1,163.7 64.1,229.3 64.7,229.3 74.7,229.3 84.3,229.3 94.9,229.3 94.9,202.9 124.7,202.9 124.7,229.3 135.3,229.3 
			144.9,229.3 154.9,229.3 155.5,229.3 155.5,163.7 144.9,163.7 		"/>
		<rect x="104.5" y="210.9" fill="#25332F" width="10.6" height="18.4"/>
		<polygon fill="#25332F" points="23.8,218.7 14.2,218.7 14.2,4.1 3.6,4.1 3.6,229.3 7.7,229.3 14.2,229.3 23.8,229.3 27.2,229.3 
			34.3,229.3 34.3,66.3 23.8,66.3 		"/>
		<rect x="43.9" y="113.9" fill="#25332F" width="10.6" height="115.4"/>
	</g>
	<g>
		<path fill="#25332F" d="M38,289.3v-1c0.5,0,0.8-0.2,1.1-0.5c0.3-0.4,0.4-0.7,0.4-1.2c0-0.3-0.1-0.6-0.3-1l-17.6-23.3v22.3
			c0.1,1,0.4,1.8,1.1,2.5c0.7,0.7,1.5,1,2.4,1v1h-8.5v-1c1,0,1.8-0.4,2.5-1.1c0.7-0.7,1-1.6,1.1-2.6v-21.8c0-1-0.3-1.8-1.1-2.6
			c-0.7-0.7-1.5-1.1-2.5-1.1v-1h8.6v1c-0.4,0-0.8,0.1-1,0.4c-0.3,0.3-0.4,0.6-0.5,1.1c0,0.4,0.1,0.7,0.3,1.1l17.6,23.3v-22.3
			c-0.1-1-0.4-1.8-1-2.4c-0.7-0.7-1.5-1.1-2.5-1.1v-1h8.4v1c-1,0-1.8,0.4-2.5,1.1c-0.7,0.7-1,1.6-1,2.6v21.8c0,1,0.3,1.9,1,2.6
			c0.7,0.7,1.5,1.1,2.5,1.1v1H38z"/>
		<path fill="#25332F" d="M38,289.3v-1c0.5,0,0.8-0.2,1.1-0.5c0.3-0.4,0.4-0.7,0.4-1.2c0-0.3-0.1-0.6-0.3-1l-17.6-23.3v22.3
			c0.1,1,0.4,1.8,1.1,2.5c0.7,0.7,1.5,1,2.4,1v1h-8.5v-1c1,0,1.8-0.4,2.5-1.1c0.7-0.7,1-1.6,1.1-2.6v-21.8c0-1-0.3-1.8-1.1-2.6
			c-0.7-0.7-1.5-1.1-2.5-1.1v-1h8.6v1c-0.4,0-0.8,0.1-1,0.4c-0.3,0.3-0.4,0.6-0.5,1.1c0,0.4,0.1,0.7,0.3,1.1l17.6,23.3v-22.3
			c-0.1-1-0.4-1.8-1-2.4c-0.7-0.7-1.5-1.1-2.5-1.1v-1h8.4v1c-1,0-1.8,0.4-2.5,1.1c-0.7,0.7-1,1.6-1,2.6v21.8c0,1,0.3,1.9,1,2.6
			c0.7,0.7,1.5,1.1,2.5,1.1v1H38z"/>
		<path fill="#25332F" d="M42.5,284.6c0,1.1,0.4,2.1,1.2,2.9c0.8,0.8,1.7,1.3,2.9,1.3H38c0.6,0,1.1-0.2,1.5-0.7
			c0.4-0.4,0.6-0.9,0.6-1.5c0-0.4-0.1-0.8-0.4-1.2l-18.5-24.5v23.8c0.1,1.1,0.5,2.1,1.3,2.9c0.8,0.8,1.7,1.2,2.8,1.2h-4.1h-4.4
			c1.1,0,2.1-0.4,2.9-1.3c0.8-0.8,1.2-1.8,1.2-2.9v-21.8c0-1.1-0.4-2.1-1.2-2.9c-0.8-0.8-1.8-1.3-2.9-1.3h8.6c-0.6,0-1,0.2-1.4,0.6
			c-0.4,0.4-0.6,0.8-0.6,1.3c-0.1,0.5,0.1,1,0.4,1.5l18.5,24.5v-23.8c-0.1-1.1-0.4-2-1.2-2.8c-0.8-0.8-1.8-1.3-2.9-1.3h4h0.4h4
			c-1.1,0-2.1,0.4-2.9,1.3c-0.8,0.8-1.2,1.8-1.2,2.9V284.6z"/>
		<path fill="#25332F" d="M65.2,289.3l0-1c1,0,1.7-0.4,2.4-1c0.7-0.7,1-1.5,1-2.5v-22.2c0,0,0-0.1,0-0.2v0c0-0.1,0-0.1,0-0.2l0-0.1
			l0,0c0,0,0-0.1,0-0.1l0-0.2v0l0,0l0-0.1l0-0.1l0-0.1l0,0c0-0.1,0-0.1-0.1-0.1l-0.1-0.1c0-0.1-0.1-0.1-0.1-0.2c0,0,0-0.1-0.1-0.1
			l0,0l-0.1-0.1c-0.1-0.1-0.1-0.2-0.2-0.2l-0.1-0.1l-0.1-0.1c0,0,0,0,0,0c0,0,0,0-0.1,0c-0.1-0.1-0.2-0.2-0.3-0.3
			c-0.1,0-0.1-0.1-0.1-0.1c-0.1-0.1-0.2-0.1-0.3-0.2c0,0-0.1,0-0.1-0.1c0,0-0.1,0-0.1-0.1c0,0-0.1,0-0.2-0.1
			c-0.4-0.2-0.8-0.3-1.2-0.3l0-1h9.2l0,1c-1,0.1-1.8,0.4-2.4,1.1c-0.5,0.5-0.8,1.1-1,1.8c-0.1,0.2-0.1,0.5-0.1,0.8v21.9
			c0,0.1,0,0.2,0,0.4l0,0v0.1l0,0.2l0,0l0,0.2c0,0,0,0,0,0l0,0.1c0,0.1,0.1,0.2,0.1,0.3c0,0,0,0.1,0.1,0.2c0.1,0.1,0.1,0.2,0.2,0.3
			c0,0,0.1,0.1,0.1,0.2c0,0,0,0,0,0l0.1,0l0.1,0.2c0,0,0,0.1,0.1,0.1l0.1,0.1l0.1,0.2l0.1,0.1c0.3,0.3,0.6,0.5,0.9,0.7l0.2,0.1
			c0.4,0.2,0.8,0.3,1.2,0.3l0,1H65.2z"/>
		<path fill="#25332F" d="M65.2,289.3l0-1c1,0,1.7-0.4,2.4-1c0.7-0.7,1-1.5,1-2.5v-22.2c0,0,0-0.1,0-0.2v0c0-0.1,0-0.1,0-0.2l0-0.1
			l0,0c0,0,0-0.1,0-0.1l0-0.2v0l0,0l0-0.1l0-0.1l0-0.1l0,0c0-0.1,0-0.1-0.1-0.1l-0.1-0.1c0-0.1-0.1-0.1-0.1-0.2c0,0,0-0.1-0.1-0.1
			l0,0l-0.1-0.1c-0.1-0.1-0.1-0.2-0.2-0.2l-0.1-0.1l-0.1-0.1c0,0,0,0,0,0c0,0,0,0-0.1,0c-0.1-0.1-0.2-0.2-0.3-0.3
			c-0.1,0-0.1-0.1-0.1-0.1c-0.1-0.1-0.2-0.1-0.3-0.2c0,0-0.1,0-0.1-0.1c0,0-0.1,0-0.1-0.1c0,0-0.1,0-0.2-0.1
			c-0.4-0.2-0.8-0.3-1.2-0.3l0-1h9.2l0,1c-1,0.1-1.8,0.4-2.4,1.1c-0.5,0.5-0.8,1.1-1,1.8c-0.1,0.2-0.1,0.5-0.1,0.8v21.9
			c0,0.1,0,0.2,0,0.4l0,0v0.1l0,0.2l0,0l0,0.2c0,0,0,0,0,0l0,0.1c0,0.1,0.1,0.2,0.1,0.3c0,0,0,0.1,0.1,0.2c0.1,0.1,0.1,0.2,0.2,0.3
			c0,0,0.1,0.1,0.1,0.2c0,0,0,0,0,0l0.1,0l0.1,0.2c0,0,0,0.1,0.1,0.1l0.1,0.1l0.1,0.2l0.1,0.1c0.3,0.3,0.6,0.5,0.9,0.7l0.2,0.1
			c0.4,0.2,0.8,0.3,1.2,0.3l0,1H65.2z"/>
		<path fill="#25332F" d="M67.9,287.6c0.8-0.8,1.2-1.8,1.2-2.9v-22.1c0,0,0-0.1,0-0.1c0-0.1,0-0.1,0-0.2c0,0,0-0.1,0-0.1
			c0,0,0-0.1,0-0.1s0-0.1,0-0.1c0,0,0-0.1,0-0.1c0,0,0-0.1,0-0.1c0-0.1,0-0.1,0-0.1c0,0,0-0.1,0-0.1c0,0,0,0,0-0.1
			c0-0.1,0-0.1,0-0.1c0,0,0,0,0-0.1c0,0,0,0,0-0.1c0-0.1,0-0.1-0.1-0.2c0,0,0-0.1,0-0.1c0,0,0-0.1,0-0.1c0-0.1-0.1-0.1-0.1-0.2
			c0-0.1-0.1-0.1-0.1-0.2c0,0,0-0.1-0.1-0.1c0,0,0-0.1-0.1-0.1c0-0.1-0.1-0.1-0.1-0.2c0,0-0.1-0.1-0.1-0.1c0,0,0,0,0-0.1
			c0,0,0,0,0,0c-0.1-0.1-0.1-0.1-0.2-0.1c-0.1-0.1-0.2-0.2-0.3-0.3c0,0-0.1,0-0.1-0.1c-0.1-0.1-0.3-0.2-0.4-0.3c0,0-0.1,0-0.1-0.1
			c-0.1,0-0.1-0.1-0.2-0.1c0,0-0.1,0-0.1,0c0,0-0.1,0-0.1-0.1c-0.4-0.2-0.8-0.3-1.3-0.3h9.2c-1.1,0.1-2,0.5-2.7,1.2
			c-0.5,0.6-0.9,1.2-1.1,2c-0.1,0.3-0.1,0.6-0.1,0.9v21.9c0,0.2,0,0.3,0,0.5v0c0,0.1,0,0.1,0,0.1c0,0.1,0,0.1,0,0.2c0,0,0,0,0,0.1
			l0,0c0,0,0,0,0,0v0c0,0,0,0.1,0,0.1c0,0,0,0.1,0,0.1c0,0.1,0.1,0.2,0.1,0.3c0,0.1,0,0.1,0.1,0.2c0.1,0.1,0.1,0.3,0.2,0.4
			c0,0,0,0.1,0.1,0.1s0,0.1,0,0.1c0,0,0,0.1,0.1,0.1c0,0,0,0,0.1,0.1c0,0.1,0.1,0.1,0.1,0.2c0,0.1,0.1,0.1,0.1,0.1
			c0,0,0,0.1,0.1,0.1c0,0,0.1,0.1,0.1,0.1c0.3,0.3,0.7,0.6,1.1,0.8c0.1,0,0.1,0.1,0.2,0.1c0.4,0.2,0.9,0.3,1.5,0.3h-9.2
			C66.3,288.7,67.2,288.3,67.9,287.6z"/>
		<path fill="#25332F" d="M136.9,289.3v-1c1,0,1.8-0.4,2.5-1.1c0.7-0.7,1-1.6,1-2.6v-21.8c0-1-0.3-1.8-1.1-2.6
			c-0.7-0.7-1.5-1.1-2.5-1.1v-1h26.2v4.9h-1c0-1-0.4-1.8-1.1-2.5c-0.8-0.7-1.6-1.1-2.6-1.1h-15.6V273h7.7c1,0,1.8-0.3,2.6-1.1
			c0.7-0.7,1.1-1.5,1.1-2.5h1v8.5h-1c0-0.5-0.1-0.9-0.3-1.4c-0.2-0.4-0.5-0.8-0.8-1.2c-0.7-0.7-1.5-1.1-2.5-1.1h-7.7v13.6h15.4
			c1,0,1.9-0.3,2.6-1.1c0.8-0.7,1.1-1.5,1.1-2.5h1v4.9H136.9z"/>
		<path fill="#25332F" d="M136.9,289.3v-1c1,0,1.8-0.4,2.5-1.1c0.7-0.7,1-1.6,1-2.6v-21.8c0-1-0.3-1.8-1.1-2.6
			c-0.7-0.7-1.5-1.1-2.5-1.1v-1h26.2v4.9h-1c0-1-0.4-1.8-1.1-2.5c-0.8-0.7-1.6-1.1-2.6-1.1h-15.6V273h7.7c1,0,1.8-0.3,2.6-1.1
			c0.7-0.7,1.1-1.5,1.1-2.5h1v8.5h-1c0-0.5-0.1-0.9-0.3-1.4c-0.2-0.4-0.5-0.8-0.8-1.2c-0.7-0.7-1.5-1.1-2.5-1.1h-7.7v13.6h15.4
			c1,0,1.9-0.3,2.6-1.1c0.8-0.7,1.1-1.5,1.1-2.5h1v4.9H136.9z"/>
		<path fill="#25332F" d="M158.4,258.9h-16.1v14.6h8.2c1.1,0,2.1-0.4,2.9-1.2c0.8-0.8,1.3-1.8,1.3-2.9v8.5c0-0.6-0.1-1.1-0.4-1.6
			c-0.3-0.5-0.6-0.9-0.9-1.3c-0.8-0.8-1.7-1.2-2.9-1.2h-8.2v14.6h15.9c1.1,0,2.1-0.4,3-1.2c0.8-0.8,1.3-1.8,1.3-2.9v4.4h-25.7
			c1.1,0,2.1-0.4,2.9-1.3c0.8-0.8,1.2-1.8,1.2-2.9v-21.8c0-1.1-0.4-2.1-1.2-2.9c-0.8-0.8-1.7-1.3-2.9-1.3h25.7v4.4
			c0-1.1-0.4-2.1-1.3-2.9C160.5,259.3,159.5,258.9,158.4,258.9z"/>
		<path fill="#25332F" d="M193.3,289.3v-1c0.7,0,1.2-0.2,1.7-0.8c0.5-0.5,0.7-1.1,0.7-1.8c0-0.3,0-0.5-0.1-0.8l-3.6-10.6h-9.2
			l-3.6,10.6c-0.2,0.8-0.1,1.6,0.4,2.3c0.5,0.7,1.1,1,1.9,1v1H173v-1c1.1,0,2.1-0.3,3-1c0.9-0.7,1.5-1.5,1.9-2.6l3.7-10.9l0.1-0.3
			l5.2-15.3h2.2l5.1,15.3l0.1,0.3l3.7,11c0.4,1,1,1.9,1.9,2.6c0.9,0.7,1.9,1,3,1v1H193.3z M191.6,273l-4.2-12.3l-4.2,12.3H191.6z"/>
		<path fill="#25332F" d="M193.3,289.3v-1c0.7,0,1.2-0.2,1.7-0.8c0.5-0.5,0.7-1.1,0.7-1.8c0-0.3,0-0.5-0.1-0.8l-3.6-10.6h-9.2
			l-3.6,10.6c-0.2,0.8-0.1,1.6,0.4,2.3c0.5,0.7,1.1,1,1.9,1v1H173v-1c1.1,0,2.1-0.3,3-1c0.9-0.7,1.5-1.5,1.9-2.6l3.7-10.9l0.1-0.3
			l5.2-15.3h2.2l5.1,15.3l0.1,0.3l3.7,11c0.4,1,1,1.9,1.9,2.6c0.9,0.7,1.9,1,3,1v1H193.3z M191.6,273l-4.2-12.3l-4.2,12.3H191.6z"/>
		<path fill="#25332F" d="M202.9,288.8h-5.5h-4.1c0.8,0,1.5-0.3,2.1-0.9c0.6-0.6,0.8-1.3,0.8-2.1c0-0.3,0-0.6-0.1-0.9l-3.7-11h-9.9
			l-3.7,11c-0.3,1-0.1,1.9,0.4,2.7c0.6,0.8,1.3,1.2,2.3,1.2H173c1.2,0,2.3-0.4,3.3-1.1c1-0.7,1.6-1.7,2-2.9l3.7-10.9l0.1-0.3
			l5.1-14.9h1.5l5,14.9l0.1,0.3l3.7,11c0.4,1.2,1.1,2.1,2.1,2.8C200.6,288.4,201.7,288.8,202.9,288.8z M182.5,273.5h9.7l-4.9-14.4
			L182.5,273.5z"/>
		<g>
			<path fill="#25332F" d="M119,276.7c-2-2.1-4.5-3.6-7.3-4.2c-1.1-0.3-2.2-0.5-3.4-0.5h-0.4c-1.8,0-3.6-0.3-5.2-0.8
				c-0.7-0.2-1.4-0.5-2-0.8c-1.6-0.8-3-1.9-4-3.2c-1.2-1.5-1.8-3.1-1.8-5s0.6-3.5,1.8-5c1.7-2.2,4.3-3.7,7.5-4.4
				c1.2-0.3,2.5-0.4,3.7-0.4c1.3,0,2.6,0.1,3.7,0.4c3.3,0.8,5.8,2.3,7.5,4.4c1.2,1.5,1.8,3.2,1.8,5v1h-3.6v-1.6
				c0-1.2-0.4-2.3-1.2-3.3c-0.8-1.1-2-1.9-3.4-2.5c-1.4-0.6-3.1-1-4.9-1s-3.4,0.3-4.9,1c-1.4,0.6-2.6,1.5-3.4,2.5
				c-0.8,1-1.2,2.1-1.2,3.3s0.4,2.3,1.2,3.3c0.8,1.1,2,1.9,3.4,2.5c1.4,0.6,3.1,1,4.9,1c1.9,0,3.7,0.3,5.3,0.8
				c0.7,0.2,1.4,0.5,2,0.8c1.6,0.8,3,1.9,4,3.2c0.6,0.7,1,1.6,1.3,2.4l0.1,0.4l-1.5,0.9L119,276.7z"/>
			<path fill="#25332F" d="M119.4,276.4c-2.1-2.2-4.7-3.7-7.6-4.3c-1.1-0.3-2.3-0.5-3.5-0.5h-0.4c-1.8,0-3.5-0.3-5-0.8
				c-0.7-0.2-1.3-0.5-1.9-0.8c-1.6-0.8-2.8-1.8-3.8-3c-1.1-1.4-1.7-3-1.7-4.6s0.6-3.2,1.7-4.6c1.7-2.1,4.1-3.5,7.3-4.2
				c1.2-0.3,2.4-0.4,3.6-0.4c1.3,0,2.5,0.1,3.6,0.4c3.2,0.7,5.6,2.2,7.3,4.3c1.1,1.4,1.7,3,1.7,4.6v0.5H118v-1.1
				c0-1.3-0.4-2.5-1.3-3.6c-0.9-1.1-2.1-2-3.6-2.7c-1.5-0.7-3.2-1-5.1-1c-1.9,0-3.6,0.3-5.1,1c-1.5,0.7-2.7,1.6-3.6,2.7
				c-0.9,1.1-1.3,2.3-1.3,3.6c0,1.3,0.4,2.5,1.3,3.6c0.9,1.1,2.1,2,3.6,2.7c1.5,0.7,3.2,1,5.1,1c1.8,0,3.6,0.3,5.1,0.8
				c0.7,0.2,1.3,0.5,1.9,0.8c1.6,0.8,2.9,1.8,3.8,3c0.6,0.7,1,1.5,1.3,2.3L119.4,276.4z"/>
			<path fill="#25332F" d="M119.4,276.4c-2.1-2.2-4.7-3.7-7.6-4.3c-1.1-0.3-2.3-0.5-3.5-0.5h-0.4c-1.8,0-3.5-0.3-5-0.8
				c-0.7-0.2-1.3-0.5-1.9-0.8c-1.6-0.8-2.8-1.8-3.8-3c-1.1-1.4-1.7-3-1.7-4.6s0.6-3.2,1.7-4.6c1.7-2.1,4.1-3.5,7.3-4.2
				c1.2-0.3,2.4-0.4,3.6-0.4c1.3,0,2.5,0.1,3.6,0.4c3.2,0.7,5.6,2.2,7.3,4.3c1.1,1.4,1.7,3,1.7,4.6v0.5H118v-1.1
				c0-1.3-0.4-2.5-1.3-3.6c-0.9-1.1-2.1-2-3.6-2.7c-1.5-0.7-3.2-1-5.1-1c-1.9,0-3.6,0.3-5.1,1c-1.5,0.7-2.7,1.6-3.6,2.7
				c-0.9,1.1-1.3,2.3-1.3,3.6c0,1.3,0.4,2.5,1.3,3.6c0.9,1.1,2.1,2,3.6,2.7c1.5,0.7,3.2,1,5.1,1c1.8,0,3.6,0.3,5.1,0.8
				c0.7,0.2,1.3,0.5,1.9,0.8c1.6,0.8,2.9,1.8,3.8,3c0.6,0.7,1,1.5,1.3,2.3L119.4,276.4z"/>
			<path fill="#25332F" d="M119.7,276c-0.3-0.7-0.7-1.5-1.2-2.1c-0.9-1.2-2.1-2.1-3.6-2.9c-0.6-0.3-1.2-0.6-1.9-0.8
				c-1.5-0.5-3.2-0.8-5-0.8c-1.9,0-3.7-0.4-5.3-1.1c-1.6-0.7-2.8-1.6-3.8-2.8c-0.9-1.2-1.4-2.5-1.4-3.9s0.5-2.7,1.4-3.9
				c0.9-1.2,2.2-2.1,3.8-2.8c1.6-0.7,3.3-1.1,5.3-1.1s3.7,0.4,5.3,1.1c1.6,0.7,2.8,1.6,3.8,2.8c0.9,1.2,1.4,2.5,1.4,3.9v0.6h1.6
				c0-1.6-0.5-3-1.6-4.3c-1.6-2-3.9-3.4-7-4.1c-1.1-0.2-2.3-0.4-3.5-0.4c-1.2,0-2.4,0.1-3.5,0.4c-3.1,0.7-5.4,2.1-7,4.1
				c-1,1.3-1.6,2.8-1.6,4.3c0,1.6,0.5,3,1.6,4.3c0.9,1.2,2.1,2.1,3.6,2.9c0.6,0.3,1.2,0.6,1.9,0.8c1.5,0.5,3.1,0.8,4.8,0.8h0.4
				c1.3,0,2.5,0.2,3.6,0.6C114.9,272.2,117.6,273.8,119.7,276z"/>
			<path fill="#25332F" d="M108,295.1c-1.3,0-2.6-0.1-3.7-0.4c-3.3-0.8-5.8-2.3-7.5-4.4c-1.2-1.5-1.8-3.2-1.8-5v-1h3.6v1.6
				c0,1.2,0.4,2.3,1.2,3.3c0.8,1.1,2,1.9,3.4,2.5c1.4,0.6,3.1,1,4.9,1s3.4-0.3,4.9-1c1.4-0.6,2.6-1.5,3.4-2.5c0.8-1,1.2-2.1,1.2-3.3
				c0-1.2-0.4-2.3-1.2-3.3c-0.8-1.1-2-1.9-3.4-2.5c-1.4-0.6-3.1-1-4.9-1c-1.9,0-3.7-0.3-5.3-0.8c-0.7-0.2-1.4-0.5-2-0.8
				c-1.6-0.8-3-1.9-4-3.2c-0.6-0.7-1-1.6-1.3-2.4l-0.1-0.4l1.5-0.9l0.3,0.3c2,2.1,4.5,3.6,7.3,4.2c1.1,0.3,2.2,0.5,3.4,0.5h0.4
				c1.8,0,3.6,0.3,5.2,0.8c0.7,0.2,1.4,0.5,2,0.8c1.6,0.8,3,1.9,4,3.2c1.2,1.5,1.8,3.1,1.8,4.9c0,1.8-0.6,3.5-1.8,5
				c-1.7,2.2-4.3,3.7-7.5,4.4C110.6,295,109.3,295.1,108,295.1z"/>
			<path fill="#25332F" d="M108,294.6c-1.3,0-2.5-0.1-3.6-0.4c-3.2-0.7-5.6-2.2-7.3-4.3c-1.1-1.4-1.7-3-1.7-4.6v-0.5H98v1.1
				c0,1.3,0.4,2.5,1.3,3.6c0.9,1.1,2.1,2,3.6,2.7c1.5,0.7,3.2,1,5.1,1s3.6-0.3,5.1-1c1.5-0.7,2.7-1.6,3.6-2.7
				c0.9-1.1,1.3-2.3,1.3-3.6c0-1.3-0.4-2.5-1.3-3.6c-0.9-1.1-2.1-2-3.6-2.7c-1.5-0.7-3.2-1-5.1-1c-1.8,0-3.6-0.3-5.1-0.8
				c-0.7-0.2-1.3-0.5-1.9-0.8c-1.6-0.8-2.9-1.8-3.8-3c-0.6-0.7-1-1.5-1.3-2.3l0.8-0.5c2.1,2.2,4.7,3.7,7.6,4.3
				c1.1,0.3,2.3,0.5,3.5,0.5h0.4c1.8,0,3.5,0.3,5,0.8c0.7,0.2,1.3,0.5,1.9,0.8c1.6,0.8,2.8,1.8,3.8,3c1.1,1.4,1.7,3,1.7,4.6
				s-0.6,3.2-1.7,4.6c-1.7,2.1-4.1,3.5-7.3,4.2C110.5,294.5,109.3,294.6,108,294.6z"/>
			<path fill="#25332F" d="M108,294.6c-1.3,0-2.5-0.1-3.6-0.4c-3.2-0.7-5.6-2.2-7.3-4.3c-1.1-1.4-1.7-3-1.7-4.6v-0.5H98v1.1
				c0,1.3,0.4,2.5,1.3,3.6c0.9,1.1,2.1,2,3.6,2.7c1.5,0.7,3.2,1,5.1,1s3.6-0.3,5.1-1c1.5-0.7,2.7-1.6,3.6-2.7
				c0.9-1.1,1.3-2.3,1.3-3.6c0-1.3-0.4-2.5-1.3-3.6c-0.9-1.1-2.1-2-3.6-2.7c-1.5-0.7-3.2-1-5.1-1c-1.8,0-3.6-0.3-5.1-0.8
				c-0.7-0.2-1.3-0.5-1.9-0.8c-1.6-0.8-2.9-1.8-3.8-3c-0.6-0.7-1-1.5-1.3-2.3l0.8-0.5c2.1,2.2,4.7,3.7,7.6,4.3
				c1.1,0.3,2.3,0.5,3.5,0.5h0.4c1.8,0,3.5,0.3,5,0.8c0.7,0.2,1.3,0.5,1.9,0.8c1.6,0.8,2.8,1.8,3.8,3c1.1,1.4,1.7,3,1.7,4.6
				s-0.6,3.2-1.7,4.6c-1.7,2.1-4.1,3.5-7.3,4.2C110.5,294.5,109.3,294.6,108,294.6z"/>
			<path fill="#25332F" d="M96.3,271.5c0.3,0.7,0.7,1.5,1.2,2.1c0.9,1.2,2.1,2.1,3.6,2.9c0.6,0.3,1.2,0.6,1.9,0.8
				c1.5,0.5,3.2,0.8,5,0.8c1.9,0,3.7,0.4,5.3,1.1c1.6,0.7,2.8,1.6,3.8,2.8c0.9,1.2,1.4,2.5,1.4,3.9s-0.5,2.7-1.4,3.9
				c-0.9,1.2-2.2,2.1-3.8,2.8c-1.6,0.7-3.3,1.1-5.3,1.1s-3.7-0.4-5.3-1.1c-1.6-0.7-2.8-1.6-3.8-2.8c-0.9-1.2-1.4-2.5-1.4-3.9v-0.6
				H96c0,1.6,0.5,3,1.6,4.3c1.6,2,3.9,3.4,7,4.1c1.1,0.2,2.3,0.4,3.5,0.4c1.2,0,2.4-0.1,3.5-0.4c3.1-0.7,5.4-2.1,7-4.1
				c1-1.3,1.6-2.8,1.6-4.3c0-1.6-0.5-3-1.6-4.3c-0.9-1.2-2.1-2.1-3.6-2.9c-0.6-0.3-1.2-0.6-1.9-0.8c-1.5-0.5-3.1-0.8-4.8-0.8h-0.4
				c-1.3,0-2.5-0.2-3.6-0.6C101.1,275.3,98.4,273.7,96.3,271.5z"/>
		</g>
	</g>
</g>
</svg>
