<?xml version="1.0" encoding="utf-8"?>
<!-- Generator: Adobe Illustrator 24.1.2, SVG Export Plug-In . SVG Version: 6.00 Build 0)  -->
<svg version="1.1" id="Layer_1" xmlns="http://www.w3.org/2000/svg" xmlns:xlink="http://www.w3.org/1999/xlink" x="0px" y="0px"
	 width="220px" height="230px" viewBox="0 0 220 230" enable-background="new 0 0 220 230" xml:space="preserve">
<g>
	<g>
		<polygon fill="#25332F" points="205.4,2 205.4,216.6 195.8,216.6 195.8,64.1 185.2,64.1 185.2,227.2 193.7,227.2 195.8,227.2 
			205.4,227.2 213.3,227.2 216,227.2 216,2 		"/>
		<rect x="165.1" y="111.8" fill="#25332F" width="10.6" height="115.4"/>
		<polygon fill="#25332F" points="144.9,216.6 135.3,216.6 135.3,190.2 124.7,190.2 94.9,190.2 84.3,190.2 84.3,216.6 74.7,216.6 
			74.7,161.6 64.1,161.6 64.1,227.2 64.7,227.2 74.7,227.2 84.3,227.2 94.9,227.2 94.9,200.8 124.7,200.8 124.7,227.2 135.3,227.2 
			144.9,227.2 154.9,227.2 155.5,227.2 155.5,161.6 144.9,161.6 		"/>
		<rect x="104.5" y="208.7" fill="#25332F" width="10.6" height="18.4"/>
		<polygon fill="#25332F" points="23.8,216.6 14.2,216.6 14.2,2 3.6,2 3.6,227.2 7.7,227.2 14.2,227.2 23.8,227.2 27.2,227.2 
			34.3,227.2 34.3,64.1 23.8,64.1 		"/>
		<rect x="43.9" y="111.8" fill="#25332F" width="10.6" height="115.4"/>
	</g>
</g>
</svg>
