<?xml version="1.0" encoding="utf-8"?>
<!-- Generator: Adobe Illustrator 17.1.0, SVG Export Plug-In . SVG Version: 6.00 Build 0)  -->
<!DOCTYPE svg PUBLIC "-//W3C//DTD SVG 1.1//EN" "http://www.w3.org/Graphics/SVG/1.1/DTD/svg11.dtd">
<svg version="1.1" id="Layer_1" xmlns="http://www.w3.org/2000/svg" xmlns:xlink="http://www.w3.org/1999/xlink" x="0px" y="0px"
	 viewBox="0 0 2000 520" enable-background="new 0 0 2000 520" xml:space="preserve">
<g>
	<path d="M86.1,494.1C60.7,479.4,41,458.4,27,431.4c-14-27.1-21-58.4-21-94.1c0-36.1,7.2-67.9,21.7-95.5
		c14.5-27.5,34.8-48.9,60.9-64.1c26.1-15.2,56.1-22.8,89.8-22.8c18,0,36.2,2.6,54.5,7.8c18.3,5.2,34.6,12.4,48.8,21.4
		c15.2,10.5,22.8,22.6,22.8,36.3c0,8.1-2.1,14.9-6.4,20.3c-4.3,5.5-9.7,8.2-16.4,8.2c-4.3,0-8.6-1.1-12.8-3.2
		c-4.3-2.1-9.7-5.3-16.4-9.6c-11.9-7.6-22.9-13.4-33.1-17.5c-10.2-4-22.4-6.1-36.7-6.1c-32.3,0-57.4,10.9-75.2,32.8
		c-17.8,21.9-26.7,52.3-26.7,91.2c0,39,8.8,69,26.4,90.1c17.6,21.1,42.5,31.7,74.8,31.7c14.3,0,26.8-2.1,37.8-6.4
		c10.9-4.3,22.1-10,33.5-17.1c5.2-3.3,10.4-6.2,15.7-8.6c5.2-2.4,10-3.6,14.3-3.6c6.6,0,12.1,2.7,16.4,8.2
		c4.3,5.5,6.4,12.2,6.4,20.3c0,6.7-1.8,12.7-5.3,18.2c-3.6,5.5-9.6,11-18.2,16.7c-14.3,9.5-30.9,16.9-49.9,22.1
		c-19,5.2-38.2,7.8-57.7,7.8C141.1,516.2,111.6,508.8,86.1,494.1z"/>
	<path d="M431,494.1c-25.9-14.7-45.9-35.7-59.9-63.1c-14-27.3-21-59-21-95.1c0-36.6,7-68.5,21-95.8c14-27.3,34-48.3,59.9-63.1
		c25.9-14.7,55.9-22.1,90.1-22.1s64.2,7.4,90.1,22.1c25.9,14.7,45.8,35.8,59.9,63.1c14,27.3,21,59.3,21,95.8c0,36.1-7,67.8-21,95.1
		c-14,27.3-34,48.3-59.9,63.1c-25.9,14.7-55.9,22.1-90.1,22.1S456.9,508.8,431,494.1z M594.2,427.8c16.9-20.9,25.3-51.5,25.3-91.9
		c0-39.9-8.6-70.4-25.7-91.6c-17.1-21.1-41.3-31.7-72.7-31.7s-55.6,10.6-72.7,31.7c-17.1,21.1-25.7,51.7-25.7,91.6
		c0,40.4,8.4,71,25.3,91.9c16.9,20.9,41.2,31.4,73,31.4C553,459.2,577.4,448.7,594.2,427.8z"/>
	<path d="M1082.7,14.5c6.6,6.2,10,14.5,10,24.9v440.4c0,10.9-3.2,19.5-9.6,25.7c-6.4,6.2-15.1,9.3-26,9.3c-10.9,0-19.6-3.1-26-9.3
		c-6.4-6.2-9.6-14.7-9.6-25.7v-28.5c-10.5,20.9-25.7,36.9-45.6,48.1c-20,11.2-43,16.7-69.1,16.7c-29.9,0-56.7-7.6-80.2-22.8
		c-23.5-15.2-41.8-36.6-54.9-64.1c-13.1-27.5-19.6-59.1-19.6-94.8c0-36.1,6.5-67.7,19.6-94.8c13.1-27.1,31.2-48,54.5-62.7
		c23.3-14.7,50.1-22.1,80.5-22.1c26.1,0,49,5.6,68.8,16.7c19.7,11.2,34.8,27,45.2,47.4V38c0-10,3.2-17.9,9.6-23.9
		c6.4-5.9,15.1-8.9,26-8.9C1067.3,5.2,1076,8.3,1082.7,14.5z M995.8,427.1c17.1-21.4,25.7-51.8,25.7-91.2c0-39.4-8.4-69.8-25.3-91.2
		c-16.9-21.4-41-32.1-72.3-32.1c-31.4,0-55.7,10.6-73,31.7c-17.3,21.1-26,51.2-26,90.1c0,39,8.8,69.5,26.4,91.6
		c17.6,22.1,41.8,33.1,72.7,33.1C954.7,459.2,978.7,448.5,995.8,427.1z"/>
	<path d="M1196.7,75.1c-8.1-7.6-12.1-17.6-12.1-29.9c0-12.3,4-22.2,12.1-29.6c8.1-7.4,19-11,32.8-11c13.3,0,24.1,3.7,32.4,11
		c8.3,7.4,12.5,17.2,12.5,29.6c0,12.4-4,22.3-12.1,29.9c-8.1,7.6-19,11.4-32.8,11.4C1215.7,86.5,1204.8,82.7,1196.7,75.1z
		 M1203.5,506.2c-6.9-5.7-10.3-14.3-10.3-25.7V191.2c0-11.4,3.4-20.1,10.3-26c6.9-5.9,15.6-8.9,26-8.9c10.4,0,19,3,25.7,8.9
		c6.6,5.9,10,14.6,10,26v289.3c0,11.4-3.3,20-10,25.7c-6.7,5.7-15.2,8.6-25.7,8.6C1219,514.7,1210.4,511.9,1203.5,506.2z"/>
	<path d="M1425.8,494.1c-25.4-14.7-45.1-35.6-59.1-62.7c-14-27.1-21-58.4-21-94.1c0-36.1,7.2-67.9,21.7-95.5
		c14.5-27.5,34.8-48.9,60.9-64.1c26.1-15.2,56.1-22.8,89.8-22.8c18,0,36.2,2.6,54.5,7.8c18.3,5.2,34.6,12.4,48.8,21.4
		c15.2,10.5,22.8,22.6,22.8,36.3c0,8.1-2.1,14.9-6.4,20.3c-4.3,5.5-9.7,8.2-16.4,8.2c-4.3,0-8.6-1.1-12.8-3.2
		c-4.3-2.1-9.7-5.3-16.4-9.6c-11.9-7.6-22.9-13.4-33.1-17.5c-10.2-4-22.4-6.1-36.7-6.1c-32.3,0-57.4,10.9-75.2,32.8
		c-17.8,21.9-26.7,52.3-26.7,91.2c0,39,8.8,69,26.4,90.1c17.6,21.1,42.5,31.7,74.8,31.7c14.3,0,26.8-2.1,37.8-6.4
		c10.9-4.3,22.1-10,33.5-17.1c5.2-3.3,10.4-6.2,15.7-8.6c5.2-2.4,10-3.6,14.3-3.6c6.6,0,12.1,2.7,16.4,8.2
		c4.3,5.5,6.4,12.2,6.4,20.3c0,6.7-1.8,12.7-5.3,18.2c-3.6,5.5-9.6,11-18.2,16.7c-14.3,9.5-30.9,16.9-49.9,22.1
		c-19,5.2-38.2,7.8-57.7,7.8C1480.8,516.2,1451.2,508.8,1425.8,494.1z"/>
	<path d="M1958.8,189.8c22.6,23.3,33.8,58.7,33.8,106.2v184.6c0,10.9-3.1,19.4-9.3,25.3c-6.2,5.9-14.7,8.9-25.7,8.9
		c-10.5,0-18.8-3.1-24.9-9.3c-6.2-6.2-9.3-14.5-9.3-24.9v-26.4c-9,20-22.4,35.3-40.3,46c-17.8,10.7-38.6,16-62.4,16
		c-22.8,0-43.7-4.6-62.7-13.9c-19-9.3-33.8-22.2-44.5-38.8c-10.7-16.6-16-35.2-16-55.6c0-25.2,6.5-45,19.6-59.5
		c13.1-14.5,34.7-24.8,64.8-31c30.2-6.2,71.6-9.3,124.3-9.3h16.4v-20.7c0-26.6-5.5-45.8-16.4-57.7c-10.9-11.9-28.5-17.8-52.7-17.8
		c-16.6,0-32.3,2.1-47,6.4c-14.7,4.3-30.9,10.5-48.5,18.5c-12.8,7.1-21.9,10.7-27.1,10.7c-7.1,0-12.9-2.6-17.5-7.8
		c-4.5-5.2-6.8-11.9-6.8-20c0-7.1,2-13.4,6.1-18.9c4-5.5,10.6-10.8,19.6-16c16.6-9,36.1-16.3,58.4-21.7c22.3-5.5,43.9-8.2,64.8-8.2
		C1901.9,154.9,1936.2,166.5,1958.8,189.8z M1897.9,436c16.6-17.8,24.9-40.7,24.9-68.8v-18.5H1910c-37.1,0-65.6,1.7-85.5,5
		c-20,3.3-34.2,8.9-42.8,16.7c-8.6,7.8-12.8,19.1-12.8,33.8c0,17.1,6.2,31.1,18.5,42c12.3,10.9,27.8,16.4,46.3,16.4
		C1859.9,462.7,1881.3,453.8,1897.9,436z"/>
</g>
</svg>
